<svg width="88" height="16" viewBox="0 0 88 16" fill="none" xmlns="http://www.w3.org/2000/svg">
<path d="M7.52447 1.46352C7.67415 1.00287 8.32585 1.00287 8.47553 1.46353L9.68386 5.18237C9.75079 5.38838 9.94277 5.52786 10.1594 5.52786H14.0696C14.554 5.52786 14.7554 6.14767 14.3635 6.43237L11.2001 8.73075C11.0248 8.85807 10.9515 9.08375 11.0184 9.28976L12.2268 13.0086C12.3764 13.4693 11.8492 13.8523 11.4573 13.5676L8.29389 11.2693C8.11865 11.1419 7.88135 11.1419 7.70611 11.2693L4.54267 13.5676C4.15081 13.8523 3.62357 13.4693 3.77325 13.0086L4.98157 9.28976C5.04851 9.08375 4.97518 8.85807 4.79994 8.73075L1.6365 6.43237C1.24464 6.14767 1.44603 5.52786 1.93039 5.52786H5.84062C6.05723 5.52786 6.24921 5.38838 6.31614 5.18237L7.52447 1.46352Z" fill="#1B1B1B"/>
<path d="M25.5245 1.46352C25.6741 1.00287 26.3259 1.00287 26.4755 1.46353L27.6839 5.18237C27.7508 5.38838 27.9428 5.52786 28.1594 5.52786H32.0696C32.554 5.52786 32.7554 6.14767 32.3635 6.43237L29.2001 8.73075C29.0248 8.85807 28.9515 9.08375 29.0184 9.28976L30.2268 13.0086C30.3764 13.4693 29.8492 13.8523 29.4573 13.5676L26.2939 11.2693C26.1186 11.1419 25.8814 11.1419 25.7061 11.2693L22.5427 13.5676C22.1508 13.8523 21.6236 13.4693 21.7732 13.0086L22.9816 9.28976C23.0485 9.08375 22.9752 8.85807 22.7999 8.73075L19.6365 6.43237C19.2446 6.14767 19.446 5.52786 19.9304 5.52786H23.8406C24.0572 5.52786 24.2492 5.38838 24.3161 5.18237L25.5245 1.46352Z" fill="#1B1B1B"/>
<path d="M43.5245 1.46352C43.6741 1.00287 44.3259 1.00287 44.4755 1.46353L45.6839 5.18237C45.7508 5.38838 45.9428 5.52786 46.1594 5.52786H50.0696C50.554 5.52786 50.7554 6.14767 50.3635 6.43237L47.2001 8.73075C47.0248 8.85807 46.9515 9.08375 47.0184 9.28976L48.2268 13.0086C48.3764 13.4693 47.8492 13.8523 47.4573 13.5676L44.2939 11.2693C44.1186 11.1419 43.8814 11.1419 43.7061 11.2693L40.5427 13.5676C40.1508 13.8523 39.6236 13.4693 39.7732 13.0086L40.9816 9.28976C41.0485 9.08375 40.9752 8.85807 40.7999 8.73075L37.6365 6.43237C37.2446 6.14767 37.446 5.52786 37.9304 5.52786H41.8406C42.0572 5.52786 42.2492 5.38838 42.3161 5.18237L43.5245 1.46352Z" fill="#1B1B1B"/>
<path d="M61.5245 1.46352C61.6741 1.00287 62.3259 1.00287 62.4755 1.46353L63.6839 5.18237C63.7508 5.38838 63.9428 5.52786 64.1594 5.52786H68.0696C68.554 5.52786 68.7554 6.14767 68.3635 6.43237L65.2001 8.73075C65.0248 8.85807 64.9515 9.08375 65.0184 9.28976L66.2268 13.0086C66.3764 13.4693 65.8492 13.8523 65.4573 13.5676L62.2939 11.2693C62.1186 11.1419 61.8814 11.1419 61.7061 11.2693L58.5427 13.5676C58.1508 13.8523 57.6236 13.4693 57.7732 13.0086L58.9816 9.28976C59.0485 9.08375 58.9752 8.85807 58.7999 8.73075L55.6365 6.43237C55.2446 6.14767 55.446 5.52786 55.9304 5.52786H59.8406C60.0572 5.52786 60.2492 5.38838 60.3161 5.18237L61.5245 1.46352Z" fill="#1B1B1B"/>
<path d="M79.5245 1.46352C79.6741 1.00287 80.3259 1.00287 80.4755 1.46353L81.6839 5.18237C81.7508 5.38838 81.9428 5.52786 82.1594 5.52786H86.0696C86.554 5.52786 86.7554 6.14767 86.3635 6.43237L83.2001 8.73075C83.0248 8.85807 82.9515 9.08375 83.0184 9.28976L84.2268 13.0086C84.3764 13.4693 83.8492 13.8523 83.4573 13.5676L80.2939 11.2693C80.1186 11.1419 79.8814 11.1419 79.7061 11.2693L76.5427 13.5676C76.1508 13.8523 75.6236 13.4693 75.7732 13.0086L76.9816 9.28976C77.0485 9.08375 76.9752 8.85807 76.7999 8.73075L73.6365 6.43237C73.2446 6.14767 73.446 5.52786 73.9304 5.52786H77.8406C78.0572 5.52786 78.2492 5.38838 78.3161 5.18237L79.5245 1.46352Z" fill="#D1D1D1"/>
</svg>
